<?xml version="1.0" encoding="utf-8" ?>
<svg baseProfile="full" height="200mm" version="1.1" viewBox="0,0,200,200" width="200mm" xmlns="http://www.w3.org/2000/svg" xmlns:ev="http://www.w3.org/2001/xml-events" xmlns:xlink="http://www.w3.org/1999/xlink"><defs /><rect fill="#1a1a1a" height="200" width="200" x="0" y="0" /><text alignment-baseline="middle" fill="#e1ed5e" style="dominant-baseline: central; font-size:9.0px; font-family:Arial;" text-anchor="middle" x="100.0" y="100.0">2020</text><line stroke="#e1ed5e" stroke-width="0.3" x1="100.0" x2="100.0" y1="15.0" y2="10.0" /><path d="M 100.0 14.0 a86.0,86.0 0 0,1 42.35913384403234,11.155469271406648" fill="none" id="id1" stroke="none" /><text fill="#e1ed5e" style="font-size:6.75px; font-family:Arial;" text-anchor="middle"><textPath startOffset="22.145653131862478" xlink:href="#id1">January</textPath></text><line stroke="#e1ed5e" stroke-width="0.3" x1="143.13028292997686" x2="145.6673583964461" y1="26.7553504044142" y2="22.446841604673864" /><path d="M 143.63769802327073 25.89364864446614 a86.0,86.0 0 0,1 29.32050498858742,28.57503671076993" fill="none" id="id2" stroke="none" /><text fill="#e1ed5e" style="font-size:6.75px; font-family:Arial;" text-anchor="middle"><textPath startOffset="20.669276256404974" xlink:href="#id2">February</textPath></text><line stroke="#e1ed5e" stroke-width="0.3" x1="172.87174338648825" x2="177.1583165268699" y1="56.24261187166439" y2="53.66864786411523" /><path d="M 173.72905801456457 55.72781907015455 a86.0,86.0 0 0,1 12.242430191666344,42.057860355516425" fill="none" id="id3" stroke="none" /><text fill="#e1ed5e" style="font-size:6.75px; font-family:Arial;" text-anchor="middle"><textPath startOffset="22.145653131862474" xlink:href="#id3">March</textPath></text><line stroke="#e1ed5e" stroke-width="0.3" x1="184.99686870605535" x2="189.99668451229388" y1="99.2704041080226" y2="99.22748670261217" /><path d="M 185.99683186730306 99.26182062694052 a86.0,86.0 0 0,1 -10.086455211305974,41.156179273409016" fill="none" id="id4" stroke="none" /><text fill="#e1ed5e" style="font-size:6.75px; font-family:Arial;" text-anchor="middle"><textPath startOffset="21.40746469413373" xlink:href="#id4">April</textPath></text><line stroke="#e1ed5e" stroke-width="0.3" x1="174.33088141563837" x2="178.70328620479359" y1="141.23008692659167" y2="143.65538615756765" /><path d="M 175.20536237346943 141.71514677278685 a86.0,86.0 0 0,1 -30.301960400862466,31.631185727798858" fill="none" id="id5" stroke="none" /><text fill="#e1ed5e" style="font-size:6.75px; font-family:Arial;" text-anchor="middle"><textPath startOffset="22.145653131862474" xlink:href="#id5">May</textPath></text><line stroke="#e1ed5e" stroke-width="0.3" x1="143.1302829299769" x2="145.66735839644613" y1="173.24464959558577" y2="177.55315839532614" /><path d="M 143.63769802327073 174.10635135553383 a86.0,86.0 0 0,1 -40.68552437913181,11.842963189579606" fill="none" id="id6" stroke="none" /><text fill="#e1ed5e" style="font-size:6.75px; font-family:Arial;" text-anchor="middle"><textPath startOffset="21.407464694133747" xlink:href="#id6">June</textPath></text><line stroke="#e1ed5e" stroke-width="0.3" x1="101.45913802915013" x2="101.54496967792366" y1="184.9874750549273" y2="189.98673829345242" /><path d="M 101.47630435890484 185.9873277026323 a86.0,86.0 0 0,1 -42.54439059252881,-10.42667462771756" fill="none" id="id7" stroke="none" /><text fill="#e1ed5e" style="font-size:6.75px; font-family:Arial;" text-anchor="middle"><textPath startOffset="22.145653131862474" xlink:href="#id7">July</textPath></text><line stroke="#e1ed5e" stroke-width="0.3" x1="58.13341422392154" x2="55.67067388415222" y1="173.97424548756322" y2="178.32567169271397" /><path d="M 57.64086615596768 174.84453072859336 a86.0,86.0 0 0,1 -31.369924170532247,-30.572349798747897" fill="none" id="id8" stroke="none" /><text fill="#e1ed5e" style="font-size:6.75px; font-family:Arial;" text-anchor="middle"><textPath startOffset="22.145653131862474" xlink:href="#id8">August</textPath></text><line stroke="#e1ed5e" stroke-width="0.3" x1="26.387840678322732" x2="22.057713659400548" y1="142.50000000000003" y2="145.00000000000006" /><path d="M 25.521815274538298 143.00000000000003 a86.0,86.0 0 0,1 -11.493303480769221,-40.785679425670985" fill="none" id="id9" stroke="none" /><text fill="#e1ed5e" style="font-size:6.75px; font-family:Arial;" text-anchor="middle"><textPath startOffset="21.40746469413373" xlink:href="#id9">September</textPath></text><line stroke="#e1ed5e" stroke-width="0.3" x1="15.003131293944662" x2="10.003315487706104" y1="100.72959589197737" y2="100.7725132973878" /><path d="M 14.003168132696942 100.73817937305945 a86.0,86.0 0 0,1 10.791469493833604,-42.45332614584628" fill="none" id="id10" stroke="none" /><text fill="#e1ed5e" style="font-size:6.75px; font-family:Arial;" text-anchor="middle"><textPath startOffset="22.145653131862435" xlink:href="#id10">October</textPath></text><line stroke="#e1ed5e" stroke-width="0.3" x1="26.387840678322718" x2="22.05771365940052" y1="57.49999999999999" y2="54.99999999999999" /><path d="M 25.521815274538284 56.99999999999999 a86.0,86.0 0 0,1 29.574782752854787,-30.34633250058573" fill="none" id="id11" stroke="none" /><text fill="#e1ed5e" style="font-size:6.75px; font-family:Arial;" text-anchor="middle"><textPath startOffset="21.40746469413373" xlink:href="#id11">November</textPath></text><path d="M 84.34580500576568 86.00192230759919 l -7.8638338150380935 -7.031888688212689 a31.549281529751216,31.549281529751216 0 0,0 0.3644727731383286,-0.40061942391130795 l 7.741963341057899 7.165845687681655" fill="#ff0000" stroke="none" /><path d="M 85.34317274990677 84.96080404539775 l -7.975414965122689 -8.183478349926272 a32.427010185066564,32.427010185066564 0 0,0 0.40198299772852203,-0.3850906186006373 l 7.833759481528867 8.319181098832479" fill="#ff0f01" stroke="none" /><path d="M 85.60350026404147 84.71141617570332 l -8.129909872970376 -8.633682551768485 a32.85900117831737,32.85900117831737 0 0,0 0.4139768312448812,-0.38317077468502914 l 7.980503270411542 8.77197107258588" fill="#ff1602" stroke="none" /><path d="M 86.13680546590413 84.22622945171909 l -8.156062240692199 -9.280101642212655 a33.35482244970939,33.35482244970939 0 0,0 0.43332761967369204,-0.3742980771843719 l 7.995555141255658 9.418743851861738" fill="#ff1f03" stroke="none" /><path d="M 86.40962598614128 83.9905735841838 l -7.738941397221773 -9.116453506635901 a32.95829998320359,32.95829998320359 0 0,0 0.4344620637019941,-0.362443705718957 l 7.5813049993578705 9.24795939626674" fill="#ff1802" stroke="none" /><path d="M 87.25179093698888 83.31218511350988 l -8.990075962208456 -11.768298019846203 a35.80926413061076,35.80926413061076 0 0,0 0.4916902038746199,-0.36897349550199415 l 8.786732769423082 11.920890542612199" fill="#ff4806" stroke="none" /><path d="M 87.54013794807813 83.09580414077388 l -7.204066663671085 -9.773700010333085 a33.14181981362769,33.14181981362769 0 0,0 0.46085908268302717,-0.3336264354234899 l 7.03522657061409 9.895927217129655" fill="#ff1b02" stroke="none" /><path d="M 87.83215693770416 82.88440491214696 l -6.446116563488996 -9.06727021584081 a32.12509810820386,32.12509810820386 0 0,0 0.45220650939568774,-0.3156752636855611 l 6.289514962919542 9.176590295331499" fill="#ff0a01" stroke="none" /><path d="M 88.12776184653039 82.6780497279521 l -8.185526906158378 -11.942928383520364 a35.47882554302451,35.47882554302451 0 0,0 0.5053261149465704,-0.3400059621240301 l 7.979304503114817 12.081684019701504" fill="#ff4306" stroke="none" /><path d="M 88.4268655584334 82.4767994020092 l -8.16413262366338 -12.361537351473885 a35.81420491246995,35.81420491246995 0 0,0 0.5159195978720552,-0.33441285017691985 l 7.9507273935343 12.49986404335471" fill="#ff4806" stroke="none" /><path d="M 88.72937992617638 82.28071324371311 l -8.713771432042446 -13.699496010135588 a37.23594787813757,37.23594787813757 0 0,0 0.54228993141198,-0.3384290247909917 l 8.477317371840767 13.847060831768117" fill="#ff5f08" stroke="none" /><path d="M 89.03521579738668 82.08984904055464 l -8.824437163959283 -14.414054925128582 a37.90075946948211,37.90075946948211 0 0,0 0.5578039644577408,-0.3349452536472097 l 8.575700442944107 14.563414179311714" fill="#ff6a09" stroke="none" /><line stroke="#e1ed5e" stroke-width="0.3" x1="56.869717070023135" x2="54.33264160355391" y1="26.7553504044142" y2="22.446841604673864" /><path d="M 56.362301976729285 25.89364864446614 a86.0,86.0 0 0,1 42.16139366436587,-11.88097634709845" fill="none" id="id12" stroke="none" /><text fill="#e1ed5e" style="font-size:6.75px; font-family:Arial;" text-anchor="middle"><textPath startOffset="22.145653131862474" xlink:href="#id12">December</textPath></text><path d="M 89.34428304082924 81.90426304109057 l -8.081571970356533 -13.724276006055629 a36.926944383730564,36.926944383730564 0 0,0 0.5489938178809901,-0.3169617285370283 l 7.844785684615143 13.86098463186883" fill="#ff5a08" stroke="none" /><path d="M 89.65649057296885 81.72400993836675 l -10.104921692545947 -17.854428395833065 a41.515605176411825,41.515605176411825 0 0,0 0.6232398006704961,-0.34570061148703457 l 9.796937703719347 18.025261922753245" fill="#ffa30f" stroke="none" /><path d="M 90.28995756902619 81.37971332152246 l -7.7428449754661 -14.847926172834338 a37.745523579393975,37.745523579393975 0 0,0 0.5770981011195958,-0.2946704024184378 l 7.486819652632922 14.97865452692561" fill="#ff6809" stroke="none" /><path d="M 90.61103034731259 81.2157712731953 l -9.56308975389608 -19.132585567653795 a42.389448710629885,42.389448710629885 0 0,0 0.6536851668747318,-0.31975017169987435 l 9.233244337759295 19.293929489450882" fill="#ffb110" stroke="none" /><path d="M 90.93487009805054 81.0573650232925 l -6.790244273012243 -14.188998950659121 a36.730070200383125,36.730070200383125 0 0,0 0.5710848790817313,-0.2672965591762407 l 6.54567068005899 14.303471741405906" fill="#ff5708" stroke="none" /><path d="M 91.26138138417902 80.90454125486306 l -9.980939001170832 -21.810152990259585 a44.985452190934865,44.985452190934865 0 0,0 0.7049575896436192,-0.31531856314905143 l 9.605068008671592 21.97827530431848" fill="#ffd814" stroke="none" /><path d="M 91.5904679813234 80.7573450057729 l -11.837044514606053 -27.0854743450656 a50.559068715674584,50.559068715674584 0 0,0 0.7982673246745547,-0.34073285299429135 l 11.370342114761067 27.284681847719295" fill="#d6ff1c" stroke="none" /><path d="M 91.92203290615298 80.6158196554323 l -9.455263031130254 -22.689189207066544 a45.58050662337787,45.58050662337787 0 0,0 0.7248288973122191,-0.2947816024298444 l 9.064379672627595 22.84815806607568" fill="#ffe115" stroke="none" /><path d="M 94.6519064749342 79.69241777938228 l -2.8203291677155224 -10.70924922949708 a32.07439730521489,32.07439730521489 0 0,0 0.5336487924489657,-0.13565143622315834 l 2.6360750820411787 10.756085897555502" fill="#ff0901" stroke="none" /><path d="M 96.05791012581881 79.37332000966035 l -2.3200809594258565 -12.139643952612172 a33.35935803164888,33.35935803164888 0 0,0 0.5634002668981454,-0.10267029647918935 l 2.1113459589766723 12.177682423022723" fill="#ff1f03" stroke="none" /><path d="M 99.63950707515114 79.00309439819443 l -1.081478774546572 -62.990716805416696 a84.0,84.0 0 0,0 1.4419716993954086,-0.012377592777739643 l 1.543054966925665e-14 63.0" fill="#4dd2ff" stroke="none" /></svg>