<?xml version="1.0" encoding="utf-8" ?>
<svg baseProfile="full" height="200mm" version="1.1" viewBox="0,0,200,200" width="200mm" xmlns="http://www.w3.org/2000/svg" xmlns:ev="http://www.w3.org/2001/xml-events" xmlns:xlink="http://www.w3.org/1999/xlink"><defs /><rect fill="#1a1a1a" height="200" width="200" x="0" y="0" /><text alignment-baseline="middle" fill="#e1ed5e" style="dominant-baseline: central; font-size:9.0px; font-family:Arial;" text-anchor="middle" x="100.0" y="100.0">2024</text><line stroke="#e1ed5e" stroke-width="0.3" x1="100.0" x2="100.0" y1="15.0" y2="10.0" /><path d="M 100.0 14.0 a86.0,86.0 0 0,1 42.35913384403234,11.155469271406648" fill="none" id="id49" stroke="none" /><text fill="#e1ed5e" style="font-size:6.75px; font-family:Arial;" text-anchor="middle"><textPath startOffset="22.145653131862478" xlink:href="#id49">January</textPath></text><path d="M 102.51750503828377 79.15144685158666 l 3.897299301397329 -32.27522900047424 a53.5096808485984,53.5096808485984 0 0,0 0.9109951260437852,0.11794655782418118 l -4.450772249331906 32.203570846449665" fill="#ff0b01" stroke="none" /><path d="M 102.87502721639298 79.19773525538626 l 4.792725302141474 -34.677772792856985 a56.00740124166315,56.00740124166315 0 0,0 0.9512587582408755,0.13980227906699155 l -5.3873091659900325 34.59038944049111" fill="#ff5207" stroke="none" /><path d="M 103.23170211078529 79.25015418208739 l 4.951383845636936 -31.791436172099395 a53.1747045964917,53.1747045964917 0 0,0 0.9007351758799712,0.14821563042111596 l -5.4963965245699775 31.70175454318261" fill="#ff0100" stroke="none" /><path d="M 103.58742460773223 79.30868818359171 l 5.493475484926138 -31.68490676275302 a53.157605468502105,53.157605468502105 0 0,0 0.8977693479654412,0.1636034814697761 l -6.036579566442633 31.585935107351876" fill="#ff0100" stroke="none" /><path d="M 103.94208987418118 79.37332000966035 l 6.606676860160535 -34.56892504827005 a56.19458421586329,56.19458421586329 0 0,0 0.9459515721159184,0.18921680734206978 l -7.19912491780741 34.45041884426512" fill="#ff5808" stroke="none" /><path d="M 104.64783097203109 79.52079915486377 l 7.161635242669201 -31.55548628958353 a53.35796245626624,53.35796245626624 0 0,0 0.8915044460884863,0.21039262183612653 l -7.702271842497572 31.427897524101176" fill="#ff0701" stroke="none" /><path d="M 104.9986988182912 79.60360301121754 l 7.902274936719516 -32.24397839974996 a54.19819411081042,54.19819411081042 0 0,0 0.901741054240941,0.22921904975708515 l -8.454621284185851 32.10357411815761" fill="#ff1f03" stroke="none" /><path d="M 105.3480935250658 79.69241777938227 l 10.266783467027759 -38.98464909425451 a61.31388976222703,61.31388976222703 0 0,0 1.0155291066829755,0.2767869738837938 l -10.934493974645427 38.80266162622657" fill="#ffdf14" stroke="none" /><path d="M 106.72888874123014 80.10723608172694 l 20.186666223690402 -59.67829175481916 a84.0,84.0 0 0,0 1.3619769118199267,0.4737662697256382 l -21.208148907555344 59.32296705252493" fill="#4dd2ff" stroke="none" /><path d="M 108.4095320186766 80.7573450057729 l 13.049534188793343 -29.859888002404947 a53.58685707552438,53.58685707552438 0 0,0 0.8397484022212351,0.3756087791450959 l -13.56019599387021 29.631475472349997" fill="#ff0d01" stroke="none" /><path d="M 108.73861861582097 80.90454125486305 l 13.692043414037935 -29.919585880087364 a53.90370301482529,53.90370301482529 0 0,0 0.8381032094504303,0.3922746203346853 l -14.20363533735987 29.680135028182146" fill="#ff1702" stroke="none" /><path d="M 109.06512990194946 81.05736502329252 l 14.224281995626107 -29.723278603095732 a53.951532425796856,53.951532425796856 0 0,0 0.8319833720333123,0.40696475847993585 l -14.732425616921487 29.474720094518577" fill="#ff1802" stroke="none" /><line stroke="#e1ed5e" stroke-width="0.3" x1="143.13028292997686" x2="145.6673583964461" y1="26.7553504044142" y2="22.446841604673864" /><path d="M 143.63769802327073 25.89364864446614 a86.0,86.0 0 0,1 29.32050498858742,28.57503671076993" fill="none" id="id50" stroke="none" /><text fill="#e1ed5e" style="font-size:6.75px; font-family:Arial;" text-anchor="middle"><textPath startOffset="20.669276256404974" xlink:href="#id50">February</textPath></text><path d="M 117.42321728460499 88.27688183743584 l 26.6571028000876 -17.936088432598098 a53.129494206358395,53.129494206358395 0 0,0 0.5026443843479228,0.7610676624257623 l -26.961071623356247 17.475840891833275" fill="#ff0000" stroke="none" /><path d="M 117.62189284568427 88.57770195909679 l 27.227114703885835 -17.648286802391244 a53.44653759891821,53.44653759891821 0 0,0 0.4924266413924934,0.7741764701601489 l -27.52605903690422 17.178296657552423" fill="#ff0901" stroke="none" /><line stroke="#e1ed5e" stroke-width="0.3" x1="172.87174338648825" x2="177.1583165268699" y1="56.24261187166439" y2="53.66864786411523" /><path d="M 173.72905801456457 55.72781907015455 a86.0,86.0 0 0,1 12.242430191666344,42.057860355516425" fill="none" id="id51" stroke="none" /><text fill="#e1ed5e" style="font-size:6.75px; font-family:Arial;" text-anchor="middle"><textPath startOffset="22.145653131862474" xlink:href="#id51">March</textPath></text><path d="M 118.00360718960297 89.18935116829356 l 27.717377821248512 -16.64348899671001 a53.330461785589236,53.330461785589236 0 0,0 0.464549691024002,0.7889069356218299 l -27.99900122240228 16.16523089279462" fill="#ff0601" stroke="none" /><path d="M 118.70294669586156 90.45014215332178 l 29.194238203663446 -14.90678604397346 a53.77980802953312,53.77980802953312 0 0,0 0.41277305360267963,0.8258226129120655 l -29.445831170477863 14.403431574897644" fill="#ff1302" stroke="none" /><path d="M 119.16976305983485 91.42560881287824 l 29.427989996750426 -13.162765616625103 a53.23763319363025,53.23763319363025 0 0,0 0.36598621117947056,0.837448074248398 l -29.649610089946865 12.655655472600856" fill="#ff0300" stroke="none" /><path d="M 119.58574465831526 92.42381321644754 l 30.30837306335709 -11.723929798916046 a53.496892277224624,53.496892277224624 0 0,0 0.32396015280700896,0.8593427941020982 l -30.50516389997854 11.201918724619789" fill="#ff0b01" stroke="none" /><path d="M 119.71291397450082 92.76114493625339 l 30.812789399944197 -11.314883069264344 a53.82460311224552,53.82460311224552 0 0,0 0.3110545086263981,0.8700748211084889 l -31.002484078614536 10.784273291774939" fill="#ff1402" stroke="none" /><path d="M 120.51834098615036 95.52812308129327 l 32.1404588607376 -7.004863416247471 a53.89494197075059,53.89494197075059 0 0,0 0.18925411409100285,0.9056494466859841 l -32.255970685652976 6.452097518276083" fill="#ff1602" stroke="none" /><path d="M 120.592083275326 95.88100663000786 l 33.00388261276049 -6.601700850192733 a54.657669581126825,54.657669581126825 0 0,0 0.17613748360817238,0.9216257428539828 l -33.11234638865082 6.034172542305436" fill="#ff2c04" stroke="none" /><line stroke="#e1ed5e" stroke-width="0.3" x1="184.99686870605535" x2="189.99668451229388" y1="99.2704041080226" y2="99.22748670261217" /><path d="M 185.99683186730306 99.26182062694052 a86.0,86.0 0 0,1 -10.086455211305974,41.156179273409016" fill="none" id="id52" stroke="none" /><text fill="#e1ed5e" style="font-size:6.75px; font-family:Arial;" text-anchor="middle"><textPath startOffset="21.40746469413373" xlink:href="#id52">April</textPath></text><line stroke="#e1ed5e" stroke-width="0.3" x1="174.33088141563837" x2="178.70328620479359" y1="141.23008692659167" y2="143.65538615756765" /><path d="M 175.20536237346943 141.71514677278685 a86.0,86.0 0 0,1 -30.301960400862466,31.631185727798858" fill="none" id="id53" stroke="none" /><text fill="#e1ed5e" style="font-size:6.75px; font-family:Arial;" text-anchor="middle"><textPath startOffset="22.145653131862474" xlink:href="#id53">May</textPath></text><line stroke="#e1ed5e" stroke-width="0.3" x1="143.1302829299769" x2="145.66735839644613" y1="173.24464959558577" y2="177.55315839532614" /><path d="M 143.63769802327073 174.10635135553383 a86.0,86.0 0 0,1 -40.68552437913181,11.842963189579606" fill="none" id="id54" stroke="none" /><text fill="#e1ed5e" style="font-size:6.75px; font-family:Arial;" text-anchor="middle"><textPath startOffset="21.407464694133747" xlink:href="#id54">June</textPath></text><line stroke="#e1ed5e" stroke-width="0.3" x1="101.45913802915013" x2="101.54496967792366" y1="184.9874750549273" y2="189.98673829345242" /><path d="M 101.47630435890484 185.9873277026323 a86.0,86.0 0 0,1 -42.54439059252881,-10.42667462771756" fill="none" id="id55" stroke="none" /><text fill="#e1ed5e" style="font-size:6.75px; font-family:Arial;" text-anchor="middle"><textPath startOffset="22.145653131862474" xlink:href="#id55">July</textPath></text><line stroke="#e1ed5e" stroke-width="0.3" x1="58.13341422392154" x2="55.67067388415222" y1="173.97424548756322" y2="178.32567169271397" /><path d="M 57.64086615596768 174.84453072859336 a86.0,86.0 0 0,1 -31.369924170532247,-30.572349798747897" fill="none" id="id56" stroke="none" /><text fill="#e1ed5e" style="font-size:6.75px; font-family:Arial;" text-anchor="middle"><textPath startOffset="22.145653131862474" xlink:href="#id56">August</textPath></text><line stroke="#e1ed5e" stroke-width="0.3" x1="26.387840678322732" x2="22.057713659400548" y1="142.50000000000003" y2="145.00000000000006" /><path d="M 25.521815274538298 143.00000000000003 a86.0,86.0 0 0,1 -11.493303480769221,-40.785679425670985" fill="none" id="id57" stroke="none" /><text fill="#e1ed5e" style="font-size:6.75px; font-family:Arial;" text-anchor="middle"><textPath startOffset="21.40746469413373" xlink:href="#id57">September</textPath></text><line stroke="#e1ed5e" stroke-width="0.3" x1="15.003131293944662" x2="10.003315487706104" y1="100.72959589197737" y2="100.7725132973878" /><path d="M 14.003168132696942 100.73817937305945 a86.0,86.0 0 0,1 10.791469493833604,-42.45332614584628" fill="none" id="id58" stroke="none" /><text fill="#e1ed5e" style="font-size:6.75px; font-family:Arial;" text-anchor="middle"><textPath startOffset="22.145653131862435" xlink:href="#id58">October</textPath></text><line stroke="#e1ed5e" stroke-width="0.3" x1="26.387840678322718" x2="22.05771365940052" y1="57.49999999999999" y2="54.99999999999999" /><path d="M 25.521815274538284 56.99999999999999 a86.0,86.0 0 0,1 29.574782752854787,-30.34633250058573" fill="none" id="id59" stroke="none" /><text fill="#e1ed5e" style="font-size:6.75px; font-family:Arial;" text-anchor="middle"><textPath startOffset="21.40746469413373" xlink:href="#id59">November</textPath></text><line stroke="#e1ed5e" stroke-width="0.3" x1="56.869717070023135" x2="54.33264160355391" y1="26.7553504044142" y2="22.446841604673864" /><path d="M 56.362301976729285 25.89364864446614 a86.0,86.0 0 0,1 42.16139366436587,-11.88097634709845" fill="none" id="id60" stroke="none" /><text fill="#e1ed5e" style="font-size:6.75px; font-family:Arial;" text-anchor="middle"><textPath startOffset="22.145653131862474" xlink:href="#id60">December</textPath></text></svg>