<?xml version="1.0" encoding="utf-8" ?>
<svg baseProfile="full" height="200mm" version="1.1" viewBox="0,0,200,200" width="200mm" xmlns="http://www.w3.org/2000/svg" xmlns:ev="http://www.w3.org/2001/xml-events" xmlns:xlink="http://www.w3.org/1999/xlink"><defs /><rect fill="#1a1a1a" height="200" width="200" x="0" y="0" /><text alignment-baseline="middle" fill="#e1ed5e" style="dominant-baseline: central; font-size:9.0px; font-family:Arial;" text-anchor="middle" x="100.0" y="100.0">2021</text><line stroke="#e1ed5e" stroke-width="0.3" x1="100.0" x2="100.0" y1="15.0" y2="10.0" /><path d="M 100.0 14.0 a86.0,86.0 0 0,1 42.46469731375804,11.215312516191453" fill="none" id="id13" stroke="none" /><text fill="#e1ed5e" style="font-size:6.75px; font-family:Arial;" text-anchor="middle"><textPath startOffset="22.20632615414155" xlink:href="#id13">January</textPath></text><path d="M 101.08401301168833 79.027996857942 l 0.7155700968895075 -13.843872867315941 a34.86235393178117,34.86235393178117 0 0,0 0.5990314459701056,0.03613521270483703 l -0.9537635916992251 13.829504385230798" fill="#ff3d05" stroke="none" /><path d="M 103.2404852339499 79.25152402106235 l 8.027329462433876 -51.398121115123885 a73.0211963767021,73.0211963767021 0 0,0 1.2402156228746395,0.20464620435183128 l -8.910874291447392 51.25232864783243" fill="#3dffad" stroke="none" /><line stroke="#e1ed5e" stroke-width="0.3" x1="143.23703022742887" x2="145.7803849466894" y1="26.81831364943548" y2="22.513508569990506" /><path d="M 143.74570117128098 25.957352633546492 a86.0,86.0 0 0,1 28.547481713284135,27.462654790039103" fill="none" id="id14" stroke="none" /><text fill="#e1ed5e" style="font-size:6.75px; font-family:Arial;" text-anchor="middle"><textPath startOffset="19.985693538727396" xlink:href="#id14">February</textPath></text><path d="M 111.2981086023043 82.29822771554956 l 23.91095965348591 -37.46347090364867 a65.44373570818684,65.44373570818684 0 0,0 0.9443623750209221,0.6142395578620542 l -24.552289054291112 37.046332421627085" fill="#32ff48" stroke="none" /><line stroke="#e1ed5e" stroke-width="0.3" x1="172.23445277983987" x2="176.4835382374775" y1="55.19839476539836" y2="52.563006222186495" /><path d="M 173.08426987136738 54.67131705675599 a86.0,86.0 0 0,1 12.851231095245387,41.99856678651699" fill="none" id="id15" stroke="none" /><text fill="#e1ed5e" style="font-size:6.75px; font-family:Arial;" text-anchor="middle"><textPath startOffset="22.20632615414155" xlink:href="#id15">March</textPath></text><path d="M 118.89224826269711 90.83032412892265 l 22.289131400126557 -10.818411209986628 a45.77586324793693,45.77586324793693 0 0,0 0.3379605960196626,0.711831205915012 l -22.472050189987975 10.433137588431075" fill="#ffe715" stroke="none" /><path d="M 119.04729006885535 91.15688171328212 l 24.81161375794954 -11.51933081045844 a48.35527663165642,48.35527663165642 0 0,0 0.3440079186364705,0.7579758487378574 l -25.00622399354936 11.09053295287852" fill="#f2ff19" stroke="none" /><path d="M 119.61058180528143 92.48833698450437 l 21.025917466604884 -8.053795046418461 a43.51561280450068,43.51561280450068 0 0,0 0.2619130374775623,0.7017967254702127 l -21.16143509258407 7.6906751839189145" fill="#ffc512" stroke="none" /><path d="M 119.7369772167798 92.82701384747503 l 21.3937804267402 -7.775116172333737 a43.762826547703995,43.762826547703995 0 0,0 0.2512130435895426,0.7102131029398994 l -21.524446551139555 7.405705442967223" fill="#ffc912" stroke="none" /><path d="M 120.94382443527127 98.46500227214037 l 23.343792453524596 -1.7108942297779055 a44.40640521692127,44.40640521692127 0 0,0 0.04931100596557352,0.7628194367195751 l -23.369784050494587 1.3088157288052953" fill="#ffd313" stroke="none" /><line stroke="#e1ed5e" stroke-width="0.3" x1="184.98032266829074" x2="189.97916517819016" y1="98.17113171792111" y2="98.06355123074" /><path d="M 185.9800911702706 98.14961562048488 a86.0,86.0 0 0,1 -9.607161424134198,41.387399972396054" fill="none" id="id16" stroke="none" /><text fill="#e1ed5e" style="font-size:6.75px; font-family:Arial;" text-anchor="middle"><textPath startOffset="21.466115282336823" xlink:href="#id16">April</textPath></text><line stroke="#e1ed5e" stroke-width="0.3" x1="174.80103733775053" x2="179.2010983576182" y1="140.37084112569926" y2="142.7455964860345" /><path d="M 175.68104954172406 140.8457921977663 a86.0,86.0 0 0,1 -30.038265399797805,32.042727171017184" fill="none" id="id17" stroke="none" /><text fill="#e1ed5e" style="font-size:6.75px; font-family:Arial;" text-anchor="middle"><textPath startOffset="22.206326154141568" xlink:href="#id17">May</textPath></text><line stroke="#e1ed5e" stroke-width="0.3" x1="143.8653032363475" x2="146.44561519142675" y1="172.8068346515853" y2="177.08958963109032" /><path d="M 144.38136562736335 173.6633856474863 a86.0,86.0 0 0,1 -40.68145358897372,12.25698825130547" fill="none" id="id18" stroke="none" /><text fill="#e1ed5e" style="font-size:6.75px; font-family:Arial;" text-anchor="middle"><textPath startOffset="21.466115282336833" xlink:href="#id18">June</textPath></text><path d="M 109.2508944713604 118.85261126421891 l 4.508798858194278 9.188585212516287 a31.235202262355493,31.235202262355493 0 0,0 -0.48472174903581555,0.23269589602937066 l -4.34996444115823 -9.264835385045217" fill="#ff0000" stroke="none" /><path d="M 108.92500713936063 119.00905698771935 l 4.713289091913083 10.038667706230004 a32.09008310969995,32.09008310969995 0 0,0 -0.5020294914295145,0.23045711652366124 l -4.539791604716149 -10.11831189308774" fill="#ff0f01" stroke="none" /><path d="M 105.88484417918355 120.15858648285463 l 4.216393009860027 14.443292047667995 a36.04615084291747,36.04615084291747 0 0,0 -0.597111066097661,0.1687495516604274 l -3.96715077565776 -14.513730392666943" fill="#ff5107" stroke="none" /><path d="M 105.18746579009965 120.34920634021253 l 5.671668371138188 22.2486190073421 a43.96015831491659,43.96015831491659 0 0,0 -0.7348604370771373,0.18061081636795415 l -5.28785464931784 -22.342951082024083" fill="#ffcc13" stroke="none" /><line stroke="#e1ed5e" stroke-width="0.3" x1="102.19456741930631" x2="102.32365962044197" y1="184.97166512339345" y2="189.96999836594603" /><path d="M 102.22038585953345 185.97133177190398 a86.0,86.0 0 0,1 -42.740103519485714,-10.115201625700543" fill="none" id="id19" stroke="none" /><text fill="#e1ed5e" style="font-size:6.75px; font-family:Arial;" text-anchor="middle"><textPath startOffset="22.20632615414155" xlink:href="#id19">July</textPath></text><line stroke="#e1ed5e" stroke-width="0.3" x1="58.666819895761336" x2="56.23545636021788" y1="174.27360380694188" y2="178.64263932499728" /><path d="M 58.180547188652646 175.14741091055294 a86.0,86.0 0 0,1 -31.652253787137756,-30.449443065178592" fill="none" id="id20" stroke="none" /><text fill="#e1ed5e" style="font-size:6.75px; font-family:Arial;" text-anchor="middle"><textPath startOffset="22.20632615414155" xlink:href="#id20">August</textPath></text><line stroke="#e1ed5e" stroke-width="0.3" x1="26.63291911575756" x2="22.317208475507996" y1="142.92168965132927" y2="145.44649492493687" /><path d="M 25.769776987707644 143.4266507060508 a86.0,86.0 0 0,1 -11.730757126820373,-40.83630448921669" fill="none" id="id21" stroke="none" /><text fill="#e1ed5e" style="font-size:6.75px; font-family:Arial;" text-anchor="middle"><textPath startOffset="21.46611528233685" xlink:href="#id21">September</textPath></text><path d="M 79.97269907076064 106.31721596034903 l -12.778127173028002 4.030607479561549 a34.39874362410051,34.39874362410051 0 0,0 -0.17326029213596578,-0.5662246594737508 l 12.845614237670098 -3.8100558475357507" fill="#ff3505" stroke="none" /><path d="M 79.67330655649465 105.27499134158121 l -16.830224571471017 4.367620790765807 a38.387713204963916,38.387713204963916 0 0,0 -0.16047651854676231,-0.6410239204846652 l 16.902912404312836 -4.07726903088375" fill="#ff760a" stroke="none" /><path d="M 79.35854240842038 103.8639653848113 l -19.57139283272285 3.66365524831126 a40.91134820124529,40.91134820124529 0 0,0 -0.12361764724139267,-0.6933134146213173 l 19.63155692230343 -3.3262230829567287" fill="#ff9e0e" stroke="none" /><path d="M 79.23777060512086 103.15116336523772 l -26.83694903424679 4.073146916117224 a48.144287783381515,48.144287783381515 0 0,0 -0.11730229393174638,-0.8204119705505599 l 26.903085379195133 -3.6105894735862636" fill="#f5ff19" stroke="none" /><path d="M 79.18660465613746 102.79330883721812 l -20.283845903349214 2.7222394558177463 a41.465702829016834,41.465702829016834 0 0,0 -0.08885209739640275,-0.7082386386077482 l 20.327699509992467 -2.3726830629225897" fill="#ffa60f" stroke="none" /><line stroke="#e1ed5e" stroke-width="0.3" x1="15.007084014347285" x2="10.007500721073583" y1="101.09737516637583" y2="101.16192664675087" /><path d="M 14.007167355692545 101.11028546245083 a86.0,86.0 0 0,1 10.666146001902534,-42.60595125391555" fill="none" id="id22" stroke="none" /><text fill="#e1ed5e" style="font-size:6.75px; font-family:Arial;" text-anchor="middle"><textPath startOffset="22.20632615414155" xlink:href="#id22">October</textPath></text><path d="M 79.81627453868168 94.20196356495316 l -23.49035011949967 -6.747907175307478 a45.44035187928448,45.44035187928448 0 0,0 0.22242858125520995,-0.7499186008217462 l 23.37071564113275 7.1512551628757635" fill="#ffe215" stroke="none" /><path d="M 80.65960295795068 91.81776055985345 l -16.881211769364302 -7.141844939193793 a39.32979159558591,39.32979159558591 0 0,0 0.2691455443922358,-0.6212250245469821 l 16.755775515129386 7.431369108327375" fill="#ff850c" stroke="none" /><path d="M 81.43458229118936 90.18545643968196 l -20.986141386581636 -11.094250720997856 a44.738166090874756,44.738166090874756 0 0,0 0.36577051302961894,-0.6777172097303614 l 20.792062774333548 11.45384891406069" fill="#ffd814" stroke="none" /><line stroke="#e1ed5e" stroke-width="0.3" x1="26.266209847984243" x2="21.928928074336255" y1="57.711370442889674" y2="55.22380399835377" /><path d="M 25.398753493254645 57.213857153982495 a86.0,86.0 0 0,1 29.58750427330803,-30.492523968695096" fill="none" id="id23" stroke="none" /><text fill="#e1ed5e" style="font-size:6.75px; font-family:Arial;" text-anchor="middle"><textPath startOffset="21.46611528233685" xlink:href="#id23">November</textPath></text><path d="M 81.78341655067845 89.55222093294921 l -19.390140766483363 -11.120850809967772 a43.35287188890056,43.35287188890056 0 0,0 0.37684034986886694,-0.6441423125200569 l 19.19584074214417 11.45297253484172" fill="#ffc312" stroke="none" /><path d="M 81.96595687620814 89.24020034530311 l -32.12159610379357 -19.164972396563737 a58.404452986459994,58.404452986459994 0 0,0 0.5225368583757719,-0.8589132033538652 l 31.78694344713158 19.715053373124675" fill="#6eff28" stroke="none" /><path d="M 82.15384107792192 88.93136811851018 l -32.008819150767756 -19.852666206100018 a58.66553940828914,58.66553940828914 0 0,0 0.5396458697631628,-0.8535901697293874 l 31.66234568475863 20.40070402354362" fill="#6aff28" stroke="none" /><path d="M 82.34701348167596 88.62581576622439 l -31.065862104392142 -20.016377318911058 a57.95596229652429,57.95596229652429 0 0,0 0.5475551390809492,-0.8339640424190975 l 30.716710329953273 20.548159425307823" fill="#73ff27" stroke="none" /><path d="M 82.54541684631803 88.32363383020206 l -31.07189040034446 -20.785759631602485 a58.38328739575713,58.38328739575713 0 0,0 0.5659718536955597,-0.8304938580396185 l 30.709494080980164 21.317531512912517" fill="#6eff28" stroke="none" /><path d="M 82.7489923806493 88.02491185347247 l -31.155390815767035 -21.627058516850074 a58.92608649695402,58.92608649695402 0 0,0 0.5855776483933048,-0.8282580558598951 l 30.778500547569852 22.160143073041755" fill="#67ff28" stroke="none" /><path d="M 82.95767976084542 87.72973835380427 l -51.12696071746375 -36.810784938587204 a84.0,84.0 0 0,0 0.8549495499454665,-1.1661502253139973 l 50.48574855500465 37.6853976075727" fill="#4dd2ff" stroke="none" /><path d="M 83.17141714833178 87.43820079747576 l -31.407603991426818 -23.444399225428064 a60.19282387789303,60.19282387789303 0 0,0 0.626934228949903,-0.8249719568937941 l 30.99939382225281 23.981555958202886" fill="#58ff2a" stroke="none" /><path d="M 83.39014120810768 87.1503855733568 l -30.97951602754773 -23.966178223761407 a60.16769219591808,60.16769219591808 0 0,0 0.6407742304616691,-0.813718201044409 l 30.56238771649209 24.495888818758864" fill="#58ff2a" stroke="none" /><path d="M 83.6137871275137 86.86637796730984 l -31.6847953985453 -25.395503536167208 a61.60613080931448,61.60613080931448 0 0,0 0.6703377993936843,-0.8217548804230588 l 31.242959107075222 25.93714258619835" fill="#47ff2c" stroke="none" /><path d="M 83.84228863543731 86.58626213691792 l -30.19280345186268 -25.065328976175028 a60.24125503811888,60.24125503811888 0 0,0 0.6692212109813543,-0.792146830566022 l 29.7568716273942 25.581334756370165" fill="#57ff2a" stroke="none" /><path d="M 84.07557802195018 86.31012108654704 l -29.650425775431778 -25.489825574673425 a60.100881786625536,60.100881786625536 0 0,0 0.6811666129220509,-0.7786911901250797 l 29.207267298931885 25.996432321001446" fill="#59ff2a" stroke="none" /><path d="M 84.80347519578584 85.50635884689758 l -17.28302660248421 -16.48363614992187 a44.88332617675327,44.88332617675327 0 0,0 0.5380351029789564,-0.55449246824058 l 16.996727235802133 16.778692813712578" fill="#ffda14" stroke="none" /><path d="M 85.05521093208273 85.24692304244772 l -16.086389786016976 -15.88003319443071 a43.604145429630655,43.604145429630655 0 0,0 0.5318962392080687,-0.5296121077208412 l 15.810657746641594 16.15458115280166" fill="#ffc712" stroke="none" /><path d="M 85.31137513191541 84.99185889309783 l -17.541738825948205 -17.923317800312624 a46.07903351424815,46.07903351424815 0 0,0 0.5716362070764843,-0.5499135783007988 l 17.23061937525929 18.222614465375738" fill="#ffeb16" stroke="none" /><path d="M 85.57189188830299 84.74124197986013 l -17.373059351551618 -18.373254945320365 a46.286353800385584,46.286353800385584 0 0,0 0.583631503534481,-0.5424218760762478 l 17.05421996422228 18.669581407471263" fill="#ffee16" stroke="none" /><path d="M 85.83668400450813 84.49514656593479 l -16.872918601711028 -18.471107331624335 a46.01753761256995,46.01753761256995 0 0,0 0.5894386664604968,-0.5292038546396495 l 16.55246894765456 18.758810195033263" fill="#ffea16" stroke="none" /><path d="M 86.10567301691215 84.25364557470407 l -16.908690961513066 -19.162514389639895 a46.5559344921118,46.5559344921118 0 0,0 0.6054625914090623,-0.5250511929424866 l 16.57633457145723 19.450730576002062" fill="#fff216" stroke="none" /><path d="M 86.65592168130627 83.78471172551755 l -17.43056858273154 -21.181057815074112 a48.4310395589161,48.4310395589161 0 0,0 0.6482762201904547,-0.5241942854714828 l 17.063388963976582 21.47795819780973" fill="#f1ff19" stroke="none" /><path d="M 86.93701828274178 83.55741782278169 l -19.233317160480695 -24.20928121899594 a51.919407920205565,51.919407920205565 0 0,0 0.7045400482217361,-0.5499046828661305 l 18.813744557099533 24.536764291085294" fill="#c1ff1e" stroke="none" /><path d="M 87.22198572758235 83.33499621200491 l -14.082331782041317 -18.366086270391943 a44.143577798408145,44.143577798408145 0 0,0 0.606982279816957,-0.4571664690957835 l 13.76410334846597 18.60576932899358" fill="#ffcf13" stroke="none" /><path d="M 87.51073957382395 83.11751280151077 l -16.3224745802656 -22.06407415217716 a48.445337393010654,48.445337393010654 0 0,0 0.6746698010193924,-0.4901763028015046 l 15.940259462892424 22.34176968979533" fill="#f1ff19" stroke="none" /><path d="M 87.80319425747018 82.90503203632743 l -11.483579448862738 -16.09531437416161 a40.77199387420085,40.77199387420085 0 0,0 0.5748246553922205,-0.4027014057259495 l 11.204823653886857 16.290600622651503" fill="#ff9c0e" stroke="none" /><line stroke="#e1ed5e" stroke-width="0.3" x1="56.762969772571076" x2="54.21961505331055" y1="26.818313649435495" y2="22.513508569990535" /><path d="M 56.25429882871897 25.957352633546506 a86.0,86.0 0 0,1 42.265352541879196,-11.944610805530505" fill="none" id="id24" stroke="none" /><text fill="#e1ed5e" style="font-size:6.75px; font-family:Arial;" text-anchor="middle"><textPath startOffset="22.20632615414155" xlink:href="#id24">December</textPath></text><path d="M 89.94658935756843 81.56283822128135 l -5.241276785122022 -9.612088021798401 a31.948206176221717,31.948206176221717 0 0,0 0.4850877997058707,-0.2591171029485122 l 5.075043938887846 9.700883851248664" fill="#ff0c01" stroke="none" /><path d="M 90.26544431104013 81.39251694778311 l -6.339773115212783 -12.118398062071883 a34.67656004787762,34.67656004787762 0 0,0 0.5312771200906239,-0.27214077582571355 l 6.130235507533396 12.225731363210102" fill="#ff3a05" stroke="none" /><path d="M 90.58718382345135 81.22770947309562 l -6.475525254591495 -12.914354122452451 a35.446901734384326,35.446901734384326 0 0,0 0.5477875289650324,-0.26879696144802195 l 6.252266458616036 13.023906244035302" fill="#ff4706" stroke="none" /><path d="M 90.91171255644093 81.06846463323043 l -9.388821375737269 -19.557568467205687 a42.694433644945406,42.694433644945406 0 0,0 0.6652642354690101,-0.3123504787722015 l 9.05077892896865 19.716283928617894" fill="#ffb911" stroke="none" /><path d="M 91.23893434514133 80.91482961587045 l -6.375733578143407 -13.888945301442986 a36.28243371475697,36.28243371475697 0 0,0 0.5698378773652774,-0.2556696451983659 l 6.135713582311355 13.99663527715788" fill="#ff5407" stroke="none" /><path d="M 91.56875222667455 80.76684994638697 l -4.381819242949402 -9.995695687426666 a31.91394851341721,31.91394851341721 0 0,0 0.5050249259072565,-0.2162253170981114 l 4.209110559251838 10.069640532487565" fill="#ff0c01" stroke="none" /><path d="M 93.59665428221793 80.00007090966166 l -3.2394718322504352 -10.118024200261067 a31.623963077355484,31.623963077355484 0 0,0 0.5198597441504261,-0.16152295305510245 l 3.0648267153892803 10.172287288198694" fill="#ff0701" stroke="none" /></svg>