<?xml version="1.0" encoding="utf-8" ?>
<svg baseProfile="full" height="200mm" version="1.1" viewBox="0,0,200,200" width="200mm" xmlns="http://www.w3.org/2000/svg" xmlns:ev="http://www.w3.org/2001/xml-events" xmlns:xlink="http://www.w3.org/1999/xlink"><defs /><rect fill="#1a1a1a" height="200" width="200" x="0" y="0" /><text alignment-baseline="middle" fill="#e1ed5e" style="dominant-baseline: central; font-size:9.0px; font-family:Arial;" text-anchor="middle" x="100.0" y="100.0">2023</text><line stroke="#e1ed5e" stroke-width="0.3" x1="100.0" x2="100.0" y1="15.0" y2="10.0" /><path d="M 100.0 14.0 a86.0,86.0 0 0,1 42.46469731375804,11.215312516191453" fill="none" id="id37" stroke="none" /><text fill="#e1ed5e" style="font-size:6.75px; font-family:Arial;" text-anchor="middle"><textPath startOffset="22.20632615414155" xlink:href="#id37">January</textPath></text><line stroke="#e1ed5e" stroke-width="0.3" x1="143.23703022742887" x2="145.7803849466894" y1="26.81831364943548" y2="22.513508569990506" /><path d="M 143.74570117128098 25.957352633546492 a86.0,86.0 0 0,1 28.547481713284135,27.462654790039103" fill="none" id="id38" stroke="none" /><text fill="#e1ed5e" style="font-size:6.75px; font-family:Arial;" text-anchor="middle"><textPath startOffset="19.985693538727396" xlink:href="#id38">February</textPath></text><line stroke="#e1ed5e" stroke-width="0.3" x1="172.23445277983987" x2="176.4835382374775" y1="55.19839476539836" y2="52.563006222186495" /><path d="M 173.08426987136738 54.67131705675599 a86.0,86.0 0 0,1 12.851231095245387,41.99856678651699" fill="none" id="id39" stroke="none" /><text fill="#e1ed5e" style="font-size:6.75px; font-family:Arial;" text-anchor="middle"><textPath startOffset="22.20632615414155" xlink:href="#id39">March</textPath></text><line stroke="#e1ed5e" stroke-width="0.3" x1="184.98032266829074" x2="189.97916517819016" y1="98.17113171792111" y2="98.06355123074" /><path d="M 185.9800911702706 98.14961562048488 a86.0,86.0 0 0,1 -9.607161424134198,41.387399972396054" fill="none" id="id40" stroke="none" /><text fill="#e1ed5e" style="font-size:6.75px; font-family:Arial;" text-anchor="middle"><textPath startOffset="21.466115282336823" xlink:href="#id40">April</textPath></text><path d="M 119.9155931802556 106.66101706037122 l 21.426771497339512 7.166449384693777 a43.59346218671629,43.59346218671629 0 0,0 -0.24414242209939963,0.7095921591554298 l -21.30023824429688 -7.534214246938507" fill="#ffff18" stroke="none" /><line stroke="#e1ed5e" stroke-width="0.3" x1="174.80103733775053" x2="179.2010983576182" y1="140.37084112569926" y2="142.7455964860345" /><path d="M 175.68104954172406 140.8457921977663 a86.0,86.0 0 0,1 -30.038265399797805,32.042727171017184" fill="none" id="id41" stroke="none" /><text fill="#e1ed5e" style="font-size:6.75px; font-family:Arial;" text-anchor="middle"><textPath startOffset="22.206326154141568" xlink:href="#id41">May</textPath></text><line stroke="#e1ed5e" stroke-width="0.3" x1="143.8653032363475" x2="146.44561519142675" y1="172.8068346515853" y2="177.08958963109032" /><path d="M 144.38136562736335 173.6633856474863 a86.0,86.0 0 0,1 -40.68145358897372,12.25698825130547" fill="none" id="id42" stroke="none" /><text fill="#e1ed5e" style="font-size:6.75px; font-family:Arial;" text-anchor="middle"><textPath startOffset="21.466115282336833" xlink:href="#id42">June</textPath></text><line stroke="#e1ed5e" stroke-width="0.3" x1="102.19456741930631" x2="102.32365962044197" y1="184.97166512339345" y2="189.96999836594603" /><path d="M 102.22038585953345 185.97133177190398 a86.0,86.0 0 0,1 -42.740103519485714,-10.115201625700543" fill="none" id="id43" stroke="none" /><text fill="#e1ed5e" style="font-size:6.75px; font-family:Arial;" text-anchor="middle"><textPath startOffset="22.20632615414155" xlink:href="#id43">July</textPath></text><line stroke="#e1ed5e" stroke-width="0.3" x1="58.666819895761336" x2="56.23545636021788" y1="174.27360380694188" y2="178.64263932499728" /><path d="M 58.180547188652646 175.14741091055294 a86.0,86.0 0 0,1 -31.652253787137756,-30.449443065178592" fill="none" id="id44" stroke="none" /><text fill="#e1ed5e" style="font-size:6.75px; font-family:Arial;" text-anchor="middle"><textPath startOffset="22.20632615414155" xlink:href="#id44">August</textPath></text><line stroke="#e1ed5e" stroke-width="0.3" x1="26.63291911575756" x2="22.317208475507996" y1="142.92168965132927" y2="145.44649492493687" /><path d="M 25.769776987707644 143.4266507060508 a86.0,86.0 0 0,1 -11.730757126820373,-40.83630448921669" fill="none" id="id45" stroke="none" /><text fill="#e1ed5e" style="font-size:6.75px; font-family:Arial;" text-anchor="middle"><textPath startOffset="21.46611528233685" xlink:href="#id45">September</textPath></text><path d="M 80.73074385275274 108.34839909993369 l -10.01938555234727 4.340895605306171 a31.919315981450104,31.919315981450104 0 0,0 -0.2140859208095226,-0.5060358768350492 l 10.0926224543491 -4.167785202804963" fill="#ff5e08" stroke="none" /><path d="M 80.58989483394504 108.01547362559985 l -6.649033690106812 2.7457426800541165 a28.193660533917775,28.193660533917775 0 0,0 -0.1813757063165215,-0.4501596285641895 l 6.695312010680722 -2.6308836836471214" fill="#ff2703" stroke="none" /><path d="M 80.45479744820244 107.68017299344265 l -17.085104897258894 6.713492012902912 a39.35679123261065,39.35679123261065 0 0,0 -0.24233610682002785,-0.632663105009369 l 17.198135283672432 -6.418405341060385" fill="#ffc712" stroke="none" /><path d="M 80.32549172779594 107.34259656027581 l -4.376091158555168 1.6331728063392639 a25.67091289186073,25.67091289186073 0 0,0 -0.15093975904728646,-0.415321390851131 l 4.403555178607679 -1.5576036184820157" fill="#ff0000" stroke="none" /><line stroke="#e1ed5e" stroke-width="0.3" x1="15.007084014347285" x2="10.007500721073583" y1="101.09737516637583" y2="101.16192664675087" /><path d="M 14.007167355692545 101.11028546245083 a86.0,86.0 0 0,1 10.666146001902534,-42.60595125391555" fill="none" id="id46" stroke="none" /><text fill="#e1ed5e" style="font-size:6.75px; font-family:Arial;" text-anchor="middle"><textPath startOffset="22.20632615414155" xlink:href="#id46">October</textPath></text><line stroke="#e1ed5e" stroke-width="0.3" x1="26.266209847984243" x2="21.928928074336255" y1="57.711370442889674" y2="55.22380399835377" /><path d="M 25.398753493254645 57.213857153982495 a86.0,86.0 0 0,1 29.58750427330803,-30.492523968695096" fill="none" id="id47" stroke="none" /><text fill="#e1ed5e" style="font-size:6.75px; font-family:Arial;" text-anchor="middle"><textPath startOffset="21.46611528233685" xlink:href="#id47">November</textPath></text><path d="M 82.34701348167596 88.62581576622439 l -5.826887293117523 -3.7543839685465823 a27.931667512941893,27.931667512941893 0 0,0 0.26389222926816874,-0.4019259697806135 l 5.761398428491434 3.8541280023048627" fill="#ff2303" stroke="none" /><path d="M 82.54541684631803 88.32363383020206 l -4.02512775876768 -2.6926375255014516 a25.842721375233218,25.842721375233218 0 0,0 0.250521229168427,-0.36760899110864503 l 3.9781820639305128 2.7615245398805124" fill="#ff0300" stroke="none" /><path d="M 85.83668400450813 84.49514656593479 l -42.48994798647562 -46.514560302195655 a84.0,84.0 0 0,0 1.0759560496161145,-0.9660039649228849 l 41.68298094926353 47.23906327588782" fill="#4dd2ff" stroke="none" /><path d="M 87.51073957382395 83.11751280151077 l -18.22119443787248 -24.63068839479329 a51.637929720269284,51.637929720269284 0 0,0 0.7191311619279527,-0.5224793723545689 l 17.794517959590745 24.940687001964527" fill="#9cff22" stroke="none" /><path d="M 87.80319425747018 82.90503203632743 l -7.662783974984998 -10.74011092167657 a34.193492367724446,34.193492367724446 0 0,0 0.4820775389984279,-0.3377261236143569 l 7.476775296402909 10.870421888054867" fill="#ff7f0b" stroke="none" /><line stroke="#e1ed5e" stroke-width="0.3" x1="56.762969772571076" x2="54.21961505331055" y1="26.818313649435495" y2="22.513508569990535" /><path d="M 56.25429882871897 25.957352633546506 a86.0,86.0 0 0,1 42.265352541879196,-11.944610805530505" fill="none" id="id48" stroke="none" /><text fill="#e1ed5e" style="font-size:6.75px; font-family:Arial;" text-anchor="middle"><textPath startOffset="22.20632615414155" xlink:href="#id48">December</textPath></text><path d="M 93.25333710446033 80.11325718540243 l -4.633797804057098 -13.658774213404552 a35.42339055498566,35.42339055498566 0 0,0 0.5791170700925033,-0.19092579290616463 l 4.397997911722185 13.736513730569952" fill="#ff910d" stroke="none" /><path d="M 93.59665428221793 80.00007090966166 l -6.06963520295446 -18.957632308717066 a40.905584499066016,40.905584499066016 0 0,0 0.6724383860426127,-0.2089298798057756 l 5.742411444201119 19.05930232340537" fill="#ffdc14" stroke="none" /></svg>