<?xml version="1.0" encoding="utf-8" ?>
<svg baseProfile="full" height="200mm" version="1.1" viewBox="0,0,200,200" width="200mm" xmlns="http://www.w3.org/2000/svg" xmlns:ev="http://www.w3.org/2001/xml-events" xmlns:xlink="http://www.w3.org/1999/xlink"><defs /><rect fill="#1a1a1a" height="200" width="200" x="0" y="0" /><text alignment-baseline="middle" fill="#e1ed5e" style="dominant-baseline: central; font-size:9.0px; font-family:Arial;" text-anchor="middle" x="100.0" y="100.0">2022</text><line stroke="#e1ed5e" stroke-width="0.3" x1="100.0" x2="100.0" y1="15.0" y2="10.0" /><path d="M 100.0 14.0 a86.0,86.0 0 0,1 42.46469731375804,11.215312516191453" fill="none" id="id25" stroke="none" /><text fill="#e1ed5e" style="font-size:6.75px; font-family:Arial;" text-anchor="middle"><textPath startOffset="22.20632615414155" xlink:href="#id25">January</textPath></text><line stroke="#e1ed5e" stroke-width="0.3" x1="143.23703022742887" x2="145.7803849466894" y1="26.81831364943548" y2="22.513508569990506" /><path d="M 143.74570117128098 25.957352633546492 a86.0,86.0 0 0,1 28.547481713284135,27.462654790039103" fill="none" id="id26" stroke="none" /><text fill="#e1ed5e" style="font-size:6.75px; font-family:Arial;" text-anchor="middle"><textPath startOffset="19.985693538727396" xlink:href="#id26">February</textPath></text><path d="M 113.34407831869373 83.78471172551755 l 35.92365877044905 -43.65325719206317 a77.53420312458712,77.53420312458712 0 0,0 1.0232390487552463,0.8569332765528184 l -36.66975535616342 43.028422758116534" fill="#41ffcf" stroke="none" /><path d="M 115.68641384162765 86.03803664274999 l 24.10775946112025 -21.45752736220255 a53.27397630808612,53.27397630808612 0 0,0 0.6037923724231163,0.6902390577449024 l -24.473543697121215 21.0393727482547" fill="#ffdc14" stroke="none" /><path d="M 115.9244219780498 86.31012108654704 l 24.438288153401356 -21.009064324801837 a53.227483793686694,53.227483793686694 0 0,0 0.5913050971358847,0.6999187277803977 l -24.79630386402436 20.585286647392333" fill="#ffdb14" stroke="none" /><path d="M 116.15771136456269 86.58626213691792 l 24.793062885446247 -20.582596066029307 a53.223271529424466,53.223271529424466 0 0,0 0.5791237048142965,0.7099371857446789 l -25.14368508233695 20.15277471067653" fill="#ffdb14" stroke="none" /><path d="M 116.82858285166822 87.43820079747576 l 50.48574855500462 -37.68539760757273 a84.0,84.0 0 0,0 0.8549495499454944,1.1661502253140252 l -51.126960717463746 36.81078493858721" fill="#4dd2ff" stroke="none" /><path d="M 117.04232023915458 87.72973835380427 l 39.379301509512125 -28.352614326305744 a69.52422205984658,69.52422205984658 0 0,0 0.6908965600877369,0.9772241874816411 l -39.861510689403744 27.670563638492307" fill="#32ff4b" stroke="none" /><path d="M 117.2510076193507 88.02491185347247 l 40.76360636475493 -28.296769102387312 a70.6223613454107,70.6223613454107 0 0,0 0.6846183307917987,1.0045929229720343 l -41.244649161215456 27.59089815614487" fill="#34ff5e" stroke="none" /><path d="M 117.45458315368197 88.32363383020206 l 42.321314119411 -28.31114075279659 a71.9177210754617,71.9177210754617 0 0,0 0.679462754226756,1.0348683899474598 l -42.80237350899568 27.578454298871456" fill="#37ff74" stroke="none" /><path d="M 117.65298651832404 88.62581576622439 l 42.17566937476203 -27.17465586649611 a71.17219358042591,71.17219358042591 0 0,0 0.6546906530656683,1.0355633888494766 l -42.637187624073654 26.44464482993243" fill="#35ff68" stroke="none" /><line stroke="#e1ed5e" stroke-width="0.3" x1="172.23445277983987" x2="176.4835382374775" y1="55.19839476539836" y2="52.563006222186495" /><path d="M 173.08426987136738 54.67131705675599 a86.0,86.0 0 0,1 12.851231095245387,41.99856678651699" fill="none" id="id27" stroke="none" /><text fill="#e1ed5e" style="font-size:6.75px; font-family:Arial;" text-anchor="middle"><textPath startOffset="22.20632615414155" xlink:href="#id27">March</textPath></text><path d="M 117.84615892207809 88.93136811851018 l 43.230104975385906 -26.81238692650786 a71.86989354106862,71.86989354106862 0 0,0 0.6430103607246547,1.0569399648408675 l -43.68523113439679 26.06427918845991" fill="#37ff74" stroke="none" /><path d="M 118.03404312379186 89.2402003453031 l 43.58668052211976 -26.005480125117888 a71.75513486806271,71.75513486806271 0 0,0 0.6237240798686541,1.0661466356265916 l -44.027864276458736 25.251354077137403" fill="#36ff72" stroke="none" /><path d="M 118.21658344932153 89.55222093294921 l 44.13845111767568 -25.314779081500703 a71.88261890874556,71.88261890874556 0 0,0 0.6063550792177307,1.078638027010415 l -44.56766383818584 24.551257544555494" fill="#37ff74" stroke="none" /><path d="M 118.3937258080291 89.86733742301442 l 53.128488802377106 -29.267210780355057 a81.6564584301296,81.6564584301296 0 0,0 0.6676072647122554,1.2369748695403233 l -53.624404166307826 28.348354927482276" fill="#49f2ff" stroke="none" /><path d="M 118.56541770881063 90.18545643968196 l 45.21492968559503 -23.90271546464542 a72.14420468691543,72.14420468691543 0 0,0 0.5709374414824318,1.1028694112063302 l -45.61967656023758 23.12087333117875" fill="#37ff78" stroke="none" /><path d="M 118.73160827565052 90.50648371742162 l 45.25266791991383 -22.93486674533264 a71.73275141854779,71.73275141854779 0 0,0 0.5487213456519958,1.1061887494040503 l -45.64074927851924 22.15251840742964" fill="#36ff71" stroke="none" /><path d="M 118.89224826269711 90.83032412892265 l 45.55114795151133 -22.109028870617703 a71.63315353898355,71.63315353898355 0 0,0 0.5288635002616573,1.1139214085590832 l -45.924969645614745 21.32166504641808" fill="#36ff6f" stroke="none" /><path d="M 119.04729006885535 91.15688171328212 l 47.39211793733899 -22.002820520029932 a73.2507124680927,73.2507124680927 0 0,0 0.5211184154055771,1.1482153514825915 l -47.763838669707916 21.18378315970528" fill="#39ff8b" stroke="none" /><path d="M 119.196687751892 91.48605970444005 l 46.58411622272141 -20.660563393421118 a71.96016840617375,71.96016840617375 0 0,0 0.4924449867263039,1.1366309245723787 l -46.9328519192904 19.855633324262136" fill="#37ff75" stroke="none" /><path d="M 119.34039704204932 91.81776055985345 l 55.78773815748001 -23.601823190923156 a81.57489402931836,81.57489402931836 0 0,0 0.5359793462191692,1.2979165003701083 l -56.18573919058537 22.638032120099744" fill="#49f3ff" stroke="none" /><path d="M 119.47837535516314 92.15188598940014 l 44.84756913974642 -18.069722412125763 a69.3510012905174,69.3510012905174 0 0,0 0.4366023663223294,1.1111053997937295 l -45.15196505595045 17.29506800743625" fill="#32ff48" stroke="none" /><path d="M 119.61058180528143 92.48833698450437 l 47.97162964836886 -18.37511603687655 a72.37044033769752,72.37044033769752 0 0,0 0.43558531365723124,1.1671520812084377 l -48.28081955052772 17.546640818638778" fill="#37ff7c" stroke="none" /><path d="M 119.7369772167798 92.82701384747503 l 47.51183849581845 -17.267170948637904 a71.55225009653103,71.55225009653103 0 0,0 0.4107334909648963,1.161198888924489 l -47.802025067593156 16.4467744332868" fill="#36ff6e" stroke="none" /><path d="M 119.85752413597 93.16781622104841 l 47.07162791984106 -16.195473842594076 a70.77983053416423,70.77983053416423 0 0,0 0.386466995972513,1.1554871275100942 l -47.343432209585345 15.382813612161666" fill="#35ff61" stroke="none" /><path d="M 119.97218684219823 93.5106431181261 l 47.661954215785975 -15.48630768565987 a71.11474439127278,71.11474439127278 0 0,0 0.3682542131322205,1.167466490167573 l -47.9214639126864 14.663591029065877" fill="#35ff67" stroke="none" /><path d="M 120.08093135843002 93.85539295169968 l 48.552988730394816 -14.85683265600061 a71.7751729807221,71.7751729807221 0 0,0 0.3513364055336054,1.1845317007763219 l -48.80153103304012 14.018871568477756" fill="#36ff72" stroke="none" /><path d="M 120.18372546131832 94.20196356495316 l 52.308930968806756 -15.026417606439356 a75.42441993427676,75.42441993427676 0 0,0 0.3477181748569577,1.2509272813948036 l -52.55983591423008 14.1237790216256" fill="#3dffae" stroke="none" /><path d="M 120.28053869075195 94.5502522615342 l 48.53646602513927 -13.042626726391818 a71.25831917338152,71.25831917338152 0 0,0 0.30811984598570397,1.1873114565784324 l -48.753782202995275 12.205218844264536" fill="#35ff69" stroke="none" /><path d="M 120.37134235888165 94.90015583598534 l 48.63736069694774 -12.17607341399673 a71.13830491099628,71.13830491099628 0 0,0 0.287152138166531,1.1904309971638234 l -48.83974563537509 11.337057185173501" fill="#35ff67" stroke="none" /><path d="M 120.45610955862082 95.25157060432595 l 50.858427917428216 -11.805649233977219 a73.21066025313172,73.21066025313172 0 0,0 0.2743852330099188,1.2300151980459828 l -51.05410753744017 10.928455866381272" fill="#39ff8a" stroke="none" /><path d="M 120.53481517161879 95.60439243477599 l 49.09108947782163 -10.508259387308197 a71.20317302193598,71.20317302193598 0 0,0 0.24622974085425184,1.2007036631179113 l -49.26469851459088 9.661680068026874" fill="#35ff68" stroke="none" /><path d="M 120.6074358757038 95.95851677861258 l 50.76577511429967 -9.956067779740822 a72.73284458243565,72.73284458243565 0 0,0 0.23037011930368664,1.2306463889832218 l -50.92963095751322 9.080743313295036" fill="#38ff82" stroke="none" /><path d="M 120.67395015179393 96.31383870115 l 49.64283863176202 -8.851308491404957 a71.42575819389512,71.42575819389512 0 0,0 0.20539374175409542,1.2122454905057483 l -49.78784423503634 7.995477212583371" fill="#36ff6c" stroke="none" /><path d="M 120.73433829027371 96.67025291283417 l 51.56488152585065 -8.28085331960144 a73.22556403214587,73.22556403214587 0 0,0 0.1891454903965281,1.2462324562228266 l -51.69978290968648 7.392021750986532" fill="#39ff8a" stroke="none" /><path d="M 120.78858239683441 97.02765380044208 l 53.56550545133263 -7.658782283293724 a75.11026076743337,75.11026076743337 0 0,0 0.17198104045273502,1.2814585121767346 l -53.6894024908432 6.735605429052325" fill="#3dffa9" stroke="none" /><path d="M 120.83666639777658 97.38593545837742 l 51.455512267466275 -6.455352671181705 a72.85885961739523,72.85885961739523 0 0,0 0.14540424224410023,1.2457347506731562 l -51.559006862713964 5.568674182183696" fill="#38ff84" stroke="none" /><path d="M 120.87857604477298 97.74499172005257 l 49.31975797711186 -5.3268222107145995 a70.60658788694755,70.60658788694755 0 0,0 0.1201081078615287,1.2094722550668038 l -49.40414321065562 4.4770744249433605" fill="#34ff5e" stroke="none" /><path d="M 120.91429891909075 98.10471618934814 l 49.20501121315341 -4.459028797284085 a70.4066399009441,70.4066399009441 0 0,0 0.09899011360049198,1.207930118689255 l -49.2744758105734 3.6113847613870615" fill="#34ff5a" stroke="none" /><line stroke="#e1ed5e" stroke-width="0.3" x1="184.98032266829074" x2="189.97916517819016" y1="98.17113171792111" y2="98.06355123074" /><path d="M 185.9800911702706 98.14961562048488 a86.0,86.0 0 0,1 -9.607161424134198,41.387399972396054" fill="none" id="id28" stroke="none" /><text fill="#e1ed5e" style="font-size:6.75px; font-family:Arial;" text-anchor="middle"><textPath startOffset="21.466115282336823" xlink:href="#id28">April</textPath></text><line stroke="#e1ed5e" stroke-width="0.3" x1="174.80103733775053" x2="179.2010983576182" y1="140.37084112569926" y2="142.7455964860345" /><path d="M 175.68104954172406 140.8457921977663 a86.0,86.0 0 0,1 -30.038265399797805,32.042727171017184" fill="none" id="id29" stroke="none" /><text fill="#e1ed5e" style="font-size:6.75px; font-family:Arial;" text-anchor="middle"><textPath startOffset="22.206326154141568" xlink:href="#id29">May</textPath></text><path d="M 115.56566222782051 114.09645910891815 l 24.172492460082434 21.890912608598693 a53.61167653724732,53.61167653724732 0 0,0 -0.6253510829128669,0.6786950921630438 l -23.792094969173846 -22.303758955563072" fill="#ffe215" stroke="none" /><path d="M 115.32070863581623 114.36230785411682 l 28.31643695206332 26.545076634802523 a59.81316394224665,59.81316394224665 0 0,0 -0.7106186926136423,0.7450808581893104 l -27.85531170807071 -27.02856460957434" fill="#afff20" stroke="none" /><path d="M 114.29624159901734 115.38237550388516 l 34.05236244253281 36.63943577460525 a71.02011237291498,71.02011237291498 0 0,0 -0.9026333328211885,0.8245341483023995 l -33.41662956024476 -37.22016268949423" fill="#35ff65" stroke="none" /><path d="M 114.0293411484842 115.62618273729858 l 23.493699241711187 26.16778889618612 a56.16684631546227,56.16684631546227 0 0,0 -0.7249739622345951,0.6397052303948078 l -23.039782926570005 -26.56831726835322" fill="#eeff19" stroke="none" /><path d="M 113.48314897796784 116.09983520530334 l 31.926152855581513 38.122088582874746 a70.72497233863992,70.72497233863992 0 0,0 -0.9400691636935636,0.7736129221369823 l -31.26521356334326 -38.66599662386891" fill="#34ff60" stroke="none" /><path d="M 112.34349029814194 116.9893568818739 l 34.52753341162819 47.5230727462294 a79.74174841400716,79.74174841400716 0 0,0 -1.117419875609136,0.7972494119093062 l -33.70438620817017 -48.11036641998293" fill="#45fff0" stroke="none" /><path d="M 112.04921762599082 117.19931262002967 l 14.44535486845032 20.619610501002494 a46.17611198117203,46.17611198117203 0 0,0 -0.6549160499273753,0.4504572309834248 l -14.088281933900062 -20.86520852135101" fill="#ff5007" stroke="none" /><path d="M 111.7513745106137 117.40417183066458 l 18.660473155957977 27.63677397520331 a54.34673198621873,54.34673198621873 0 0,0 -0.7798116851545612,0.5168166630889344 l -18.181986772063453 -27.953888659383566" fill="#fff016" stroke="none" /><line stroke="#e1ed5e" stroke-width="0.3" x1="143.8653032363475" x2="146.44561519142675" y1="172.8068346515853" y2="177.08958963109032" /><path d="M 144.38136562736335 173.6633856474863 a86.0,86.0 0 0,1 -40.68145358897372,12.25698825130547" fill="none" id="id30" stroke="none" /><text fill="#e1ed5e" style="font-size:6.75px; font-family:Arial;" text-anchor="middle"><textPath startOffset="21.466115282336833" xlink:href="#id30">June</textPath></text><path d="M 110.5260780823613 118.17145234162733 l 20.198940685532282 34.86997580167759 a61.29779667956093,61.29779667956093 0 0,0 -0.9175732367254099,0.5210220310031506 l -19.595718681885675 -35.21250099847537" fill="#96ff23" stroke="none" /><line stroke="#e1ed5e" stroke-width="0.3" x1="102.19456741930631" x2="102.32365962044197" y1="184.97166512339345" y2="189.96999836594603" /><path d="M 102.22038585953345 185.97133177190398 a86.0,86.0 0 0,1 -42.740103519485714,-10.115201625700543" fill="none" id="id31" stroke="none" /><text fill="#e1ed5e" style="font-size:6.75px; font-family:Arial;" text-anchor="middle"><textPath startOffset="22.20632615414155" xlink:href="#id31">July</textPath></text><line stroke="#e1ed5e" stroke-width="0.3" x1="58.666819895761336" x2="56.23545636021788" y1="174.27360380694188" y2="178.64263932499728" /><path d="M 58.180547188652646 175.14741091055294 a86.0,86.0 0 0,1 -31.652253787137756,-30.449443065178592" fill="none" id="id32" stroke="none" /><text fill="#e1ed5e" style="font-size:6.75px; font-family:Arial;" text-anchor="middle"><textPath startOffset="22.20632615414155" xlink:href="#id32">August</textPath></text><line stroke="#e1ed5e" stroke-width="0.3" x1="26.63291911575756" x2="22.317208475507996" y1="142.92168965132927" y2="145.44649492493687" /><path d="M 25.769776987707644 143.4266507060508 a86.0,86.0 0 0,1 -11.730757126820373,-40.83630448921669" fill="none" id="id33" stroke="none" /><text fill="#e1ed5e" style="font-size:6.75px; font-family:Arial;" text-anchor="middle"><textPath startOffset="21.46611528233685" xlink:href="#id33">September</textPath></text><path d="M 81.18737489456691 109.33194174019688 l -43.07749409097816 21.368451394621527 a69.086185252758,69.086185252758 0 0,0 -0.5192871121457181,-1.0698852587821512 l 43.4389344597386 -20.623777179874093" fill="#31ff43" stroke="none" /><path d="M 81.02952815118164 109.00673069616217 l -43.4334291640293 20.621163395870642 a69.08009098104897,69.08009098104897 0 0,0 -0.5007496818252292,-1.0785702658685161 l 43.78195346269436 -19.870473062723295" fill="#31ff43" stroke="none" /><line stroke="#e1ed5e" stroke-width="0.3" x1="15.007084014347285" x2="10.007500721073583" y1="101.09737516637583" y2="101.16192664675087" /><path d="M 14.007167355692545 101.11028546245083 a86.0,86.0 0 0,1 10.666146001902534,-42.60595125391555" fill="none" id="id34" stroke="none" /><text fill="#e1ed5e" style="font-size:6.75px; font-family:Arial;" text-anchor="middle"><textPath startOffset="22.20632615414155" xlink:href="#id34">October</textPath></text><line stroke="#e1ed5e" stroke-width="0.3" x1="26.266209847984243" x2="21.928928074336255" y1="57.711370442889674" y2="55.22380399835377" /><path d="M 25.398753493254645 57.213857153982495 a86.0,86.0 0 0,1 29.58750427330803,-30.492523968695096" fill="none" id="id35" stroke="none" /><text fill="#e1ed5e" style="font-size:6.75px; font-family:Arial;" text-anchor="middle"><textPath startOffset="21.46611528233685" xlink:href="#id35">November</textPath></text><path d="M 89.00827224532344 82.1063720568725 l -11.204397949945593 -18.23983751396747 a42.40631229232817,42.40631229232817 0 0,0 0.6252668055964571,-0.37671625421383104 l 10.888769078131485 18.43000037763992" fill="#ff0000" stroke="none" /><line stroke="#e1ed5e" stroke-width="0.3" x1="56.762969772571076" x2="54.21961505331055" y1="26.818313649435495" y2="22.513508569990535" /><path d="M 56.25429882871897 25.957352633546506 a86.0,86.0 0 0,1 42.265352541879196,-11.944610805530505" fill="none" id="id36" stroke="none" /><text fill="#e1ed5e" style="font-size:6.75px; font-family:Arial;" text-anchor="middle"><textPath startOffset="22.20632615414155" xlink:href="#id36">December</textPath></text></svg>